<svg width="104" height="56" viewBox="0 0 104 56" fill="none" xmlns="http://www.w3.org/2000/svg">
<path d="M13.5107 19.7357C12.3345 19.7976 11.344 20.2464 10.5393 21.0821C9.76548 21.9179 9.20833 22.8774 8.86786 23.9607C8.52738 25.0131 8.35714 26.0964 8.35714 27.2107C8.35714 28.325 8.5119 29.4238 8.82143 30.5071C9.1619 31.5905 9.73452 32.55 10.5393 33.3857C11.344 34.1905 12.3345 34.6238 13.5107 34.6857H28.8321C30.7821 34.8714 31.85 35.9393 32.0357 37.8893C32.0048 38.756 31.6798 39.4833 31.0607 40.0714C30.4417 40.6286 29.6988 40.9071 28.8321 40.9071H14.0214H11.8857C9.71905 40.7833 7.93929 39.9631 6.54643 38.4464C5.15357 36.8988 4.14762 35.15 3.52857 33.2C2.94048 31.25 2.64643 29.2536 2.64643 27.2107C2.64643 25.694 2.81667 24.1929 3.15714 22.7071C3.49762 21.2214 4.02381 19.8131 4.73571 18.4821C5.47857 17.1202 6.45357 15.9595 7.66071 15C8.89881 14.0405 10.3071 13.5452 11.8857 13.5143H12.7679H28.8321C30.7821 13.7 31.85 14.7679 32.0357 16.7179C32.0357 17.5845 31.7107 18.3119 31.0607 18.9C30.4417 19.4571 29.6988 19.7357 28.8321 19.7357H13.5107ZM56.4571 13.5143C58.6238 13.6381 60.4036 14.4738 61.7964 16.0214C63.1893 17.5381 64.1952 19.2714 64.8143 21.2214C65.4333 23.1714 65.7429 25.1679 65.7429 27.2107C65.7429 29.2536 65.4333 31.25 64.8143 33.2C64.2262 35.15 63.2202 36.8988 61.7964 38.4464C60.4036 39.9631 58.6238 40.7833 56.4571 40.9071H39.3714C38.5357 40.8762 37.8238 40.5821 37.2357 40.025C36.6786 39.4369 36.3845 38.725 36.3536 37.8893V26.375C36.3845 25.5083 36.7095 24.7964 37.3286 24.2393C37.9476 23.6512 38.6905 23.3571 39.5571 23.3571C40.3929 23.3881 41.1048 23.6976 41.6929 24.2857C42.281 24.8429 42.5905 25.5393 42.6214 26.375V33.4321C42.6214 34.2679 43.0548 34.6857 43.9214 34.6857H54.8786C56.0548 34.6238 57.0298 34.175 57.8036 33.3393C58.5774 32.5036 59.1345 31.5595 59.475 30.5071C59.8464 29.4238 60.0321 28.325 60.0321 27.2107C60.0321 26.0964 59.8464 25.0131 59.475 23.9607C59.1345 22.8774 58.5774 21.9179 57.8036 21.0821C57.0298 20.2464 56.0548 19.7976 54.8786 19.7357H39.3714C37.5143 19.581 36.5083 18.575 36.3536 16.7179C36.3536 15.8512 36.6321 15.1083 37.1893 14.4893C37.7774 13.8702 38.5048 13.5452 39.3714 13.5143H56.4571ZM100.843 16.625C100.843 17.4917 100.533 18.219 99.9143 18.8071C99.3262 19.4262 98.5988 19.7357 97.7321 19.7357H79.1607C78.5726 19.7667 78.0774 19.906 77.675 20.1536C77.3036 20.3702 77.025 20.6333 76.8393 20.9429C76.6536 21.2214 76.5607 21.5155 76.5607 21.825C76.5607 22.1345 76.6536 22.444 76.8393 22.7536C77.025 23.0321 77.3036 23.2952 77.675 23.5429C78.0774 23.7595 78.5726 23.8833 79.1607 23.9143H92.3464C94.5131 23.9762 96.2929 24.4869 97.6857 25.4464C99.1095 26.375 100.115 27.4583 100.704 28.6964C101.323 29.9036 101.632 31.1417 101.632 32.4107C101.632 33.6488 101.323 34.8869 100.704 36.125C100.085 37.3321 99.0786 38.4155 97.6857 39.375C96.2929 40.3036 94.5131 40.7679 92.3464 40.7679H92.0679C91.8821 40.7988 91.6964 40.8143 91.5107 40.8143H73.9607C73.094 40.8143 72.3512 40.5202 71.7321 39.9321C71.144 39.3131 70.85 38.5702 70.85 37.7036C70.85 36.8369 71.1595 36.1095 71.7786 35.5214C72.3667 34.9024 73.094 34.5929 73.9607 34.5929H92.625C93.2131 34.6238 93.6929 34.5155 94.0643 34.2679C94.4667 34.0202 94.7607 33.7417 94.9464 33.4321C95.1321 33.0917 95.225 32.7512 95.225 32.4107C95.225 32.194 95.1321 31.9 94.9464 31.5286C94.7607 31.1262 94.4667 30.8012 94.0643 30.5536C93.6929 30.306 93.2131 30.1667 92.625 30.1357H79.4393C77.2726 30.0738 75.4774 29.5786 74.0536 28.65C72.6607 27.7214 71.6548 26.669 71.0357 25.4929C70.4476 24.2857 70.1536 23.0631 70.1536 21.825C70.1536 20.6179 70.4631 19.4262 71.0821 18.25C71.7012 17.0429 72.7071 15.975 74.1 15.0464C75.4929 14.1179 77.2726 13.6226 79.4393 13.5607H79.7179C79.9036 13.5298 80.0893 13.5143 80.275 13.5143H97.7321C98.5988 13.5143 99.3262 13.8238 99.9143 14.4429C100.533 15.031 100.843 15.7583 100.843 16.625Z" fill="white"/>
<path d="M6.03198 54.0654C4.8434 54.0654 4.03518 53.1799 4.03518 51.8725C4.03518 50.565 4.85529 49.6736 6.05575 49.6736C6.97095 49.6736 7.69003 50.2263 7.86238 51.0702H7.40478C7.22649 50.4581 6.70352 50.0837 6.03792 50.0837C5.10489 50.0837 4.48089 50.7968 4.48089 51.8725C4.48089 52.9422 5.10489 53.6553 6.03792 53.6553C6.70946 53.6553 7.24432 53.2928 7.42855 52.7223H7.88615C7.69003 53.5246 6.94718 54.0654 6.03198 54.0654ZM10.0049 49.7449V53.6078H11.9601V54H9.57698V49.7449H10.0049ZM13.9794 49.7449V54H13.5515V49.7449H13.9794ZM18.5143 54H15.9649V49.7449H18.5084V50.1371H16.3927V51.6704H18.3123V52.0567H16.3927V53.6078H18.5143V54ZM20.7619 54H20.334V49.7449H20.7678L23.1093 53.2869V49.7449H23.5313V54H23.1093L20.7619 50.4581V54ZM25.0758 50.1371V49.7449H28.1245V50.1371H26.8111V54H26.3832V50.1371H25.0758ZM33.5589 54H32.2634V49.7449H33.547C34.8307 49.7449 35.6865 50.6007 35.6865 51.8725C35.6865 53.1442 34.8366 54 33.5589 54ZM33.5292 50.1371H32.6913V53.6078H33.5411C34.5811 53.6078 35.2467 52.9303 35.2467 51.8725C35.2467 50.8087 34.5811 50.1371 33.5292 50.1371ZM37.8381 54H37.4102V49.7449H38.997C39.8587 49.7449 40.3816 50.2203 40.3816 50.9751C40.3816 51.5872 40.0607 52.0151 39.514 52.1637L40.4232 54H39.9478L39.0802 52.235H37.8381V54ZM37.8381 50.1312V51.8487H39.0088C39.5972 51.8487 39.9419 51.5278 39.9419 50.987C39.9419 50.4343 39.5794 50.1312 38.997 50.1312H37.8381ZM42.5903 49.7449V54H42.1624V49.7449H42.5903ZM45.7465 54L44.1182 49.7449H44.5758L45.7109 52.7045C45.8 52.9362 45.8832 53.168 45.9783 53.4651C46.0674 53.1561 46.1744 52.859 46.2398 52.6985L47.3689 49.7449H47.8087L46.1922 54H45.7465ZM51.8833 54H49.3338V49.7449H51.8773V50.1371H49.7617V51.6704H51.6812V52.0567H49.7617V53.6078H51.8833V54ZM54.1308 54H53.7029V49.7449H54.1368L56.4782 53.2869V49.7449H56.9002V54H56.4782L54.1308 50.4581V54ZM61.2339 50.8503C61.2339 50.1371 61.8044 49.6677 62.6602 49.6677C63.4268 49.6677 63.932 50.0955 63.9974 50.8087H63.5635C63.516 50.3273 63.1891 50.0539 62.6543 50.0539C62.054 50.0539 61.6618 50.363 61.6618 50.8443C61.6618 51.2187 61.8817 51.4565 62.3274 51.5694L63.0584 51.7477C63.724 51.9081 64.0687 52.2885 64.0687 52.8649C64.0687 53.6018 63.4982 54.0713 62.6186 54.0713C61.7926 54.0713 61.2339 53.6375 61.1804 52.9422H61.6202C61.644 53.3879 62.0362 53.6791 62.6186 53.6791C63.2426 53.6791 63.6408 53.376 63.6408 52.8887C63.6408 52.5083 63.4268 52.2587 62.9692 52.1518L62.2502 51.9735C61.5846 51.813 61.2339 51.4327 61.2339 50.8503ZM69.5805 51.8725C69.5805 53.1621 68.7426 54.0713 67.554 54.0713C66.3595 54.0713 65.5275 53.1621 65.5275 51.8725C65.5275 50.5829 66.3654 49.6677 67.554 49.6677C68.7485 49.6677 69.5805 50.5769 69.5805 51.8725ZM69.1408 51.8725C69.1408 50.8087 68.493 50.0837 67.554 50.0837C66.615 50.0837 65.9732 50.8087 65.9732 51.8725C65.9732 52.9362 66.615 53.6613 67.554 53.6613C68.493 53.6613 69.1408 52.9303 69.1408 51.8725ZM71.7351 49.7449V53.6078H73.6903V54H71.3073V49.7449H71.7351ZM75.0721 52.5202V49.7449H75.5V52.5024C75.5 53.2512 75.9101 53.6553 76.6529 53.6553C77.378 53.6553 77.788 53.2393 77.788 52.5024V49.7449H78.2159V52.5202C78.2159 53.483 77.6216 54.0713 76.6529 54.0713C75.6664 54.0713 75.0721 53.4889 75.0721 52.5202ZM79.7275 50.1371V49.7449H82.7762V50.1371H81.4629V54H81.035V50.1371H79.7275ZM84.744 49.7449V54H84.3161V49.7449H84.744ZM90.521 51.8725C90.521 53.1621 89.683 54.0713 88.4945 54.0713C87.2999 54.0713 86.4679 53.1621 86.4679 51.8725C86.4679 50.5829 87.3059 49.6677 88.4945 49.6677C89.689 49.6677 90.521 50.5769 90.521 51.8725ZM90.0812 51.8725C90.0812 50.8087 89.4334 50.0837 88.4945 50.0837C87.5555 50.0837 86.9137 50.8087 86.9137 51.8725C86.9137 52.9362 87.5555 53.6613 88.4945 53.6613C89.4334 53.6613 90.0812 52.9303 90.0812 51.8725ZM92.6756 54H92.2477V49.7449H92.6815L95.023 53.2869V49.7449H95.445V54H95.023L92.6756 50.4581V54ZM97.1332 50.8503C97.1332 50.1371 97.7037 49.6677 98.5595 49.6677C99.3261 49.6677 99.8312 50.0955 99.8966 50.8087H99.4628C99.4152 50.3273 99.0884 50.0539 98.5535 50.0539C97.9533 50.0539 97.5611 50.363 97.5611 50.8443C97.5611 51.2187 97.781 51.4565 98.2267 51.5694L98.9576 51.7477C99.6232 51.9081 99.9679 52.2885 99.9679 52.8649C99.9679 53.6018 99.3974 54.0713 98.5179 54.0713C97.6918 54.0713 97.1332 53.6375 97.0797 52.9422H97.5195C97.5432 53.3879 97.9355 53.6791 98.5179 53.6791C99.1419 53.6791 99.54 53.376 99.54 52.8887C99.54 52.5083 99.3261 52.2587 98.8685 52.1518L98.1494 51.9735C97.4838 51.813 97.1332 51.4327 97.1332 50.8503Z" fill="white"/>
</svg>
